<svg xmlns="http://www.w3.org/2000/svg" viewBox="0 0 8163.1 1864.53"><defs><style>.cls-1{fill:#fff;}</style></defs><g id="Слой_2" data-name="Слой 2"><g id="Слой_1-2" data-name="Слой 1"><path class="cls-1" d="M2636.38,483.75h4.44L2826.48,15.53h227.83L2739.94,708.62v383.9H2532.08V695.3L2223.63,15.53h227.83Z"/><path class="cls-1" d="M3891,15.53V719q0,183.46-105.41,286.27t-274.79,102.81q-168.65,0-273.69-103.19T3132.06,719V15.53h207.85V719q0,110.24,45.86,168.29t125,58.06q80.61,0,126.12-57.7T3682.39,719V15.53Z"/><path class="cls-1" d="M4590.06,812.92q0-64.35-32.92-101.71t-118-72.86q-165.7-58.43-249.27-132.41t-83.59-207.11q0-132.39,95.42-215.61T4445.08,0q156.83,0,252.24,88.76t92.46,238.18l-1.49,4.44H4585.63q0-83.58-37.35-126.86t-106.9-43.27q-59.9,0-93.19,39.57t-33.29,98.75q0,54.75,37.72,90.24t129.46,77.67q156,51.78,236.31,130.92t80.27,213q0,138.35-93.95,217.48t-249.27,79.14q-153.1,0-261.85-85.43t-105-260l1.48-4.44h203.41q0,101.37,41.05,145.73t120.94,44.38q67.31,0,101-37T4590.06,812.92Z"/><path class="cls-1" d="M5764.77,704.92q0,190.11-107.26,296.62T5372,1108.05q-178.26,0-284.78-106.51T4980.7,704.92V404.61q0-189.36,106.14-297T5371.27,0q178.23,0,285.89,107.62t107.61,297ZM5556.92,402.39q0-117.61-47.71-177.52T5371.27,165q-91,0-136.85,59.54t-45.86,177.9V704.92q0,119.83,46.23,179.75T5372,944.58q91,0,138-59.91t47-179.75Z"/><path class="cls-1" d="M6185.74,929.79H6587.4v162.73H5977.14V15.53h208.6Z"/><path class="cls-1" d="M6976.55,817.36l8.86,45.11h4.45l8.88-42.9,186.4-804h219.69l-308.45,1077H6879.64l-307-1077h219.69Z"/><path class="cls-1" d="M8098,616.9H7768.83V929.79H8163.1v162.73H7560.24V15.53h601.38V179H7768.83V454.16H8098Z"/><rect class="cls-1" x="902" y="1218.21" width="542.28" height="241.61"/><polygon class="cls-1" points="1744.95 15.54 1744.95 557.82 1143.61 557.82 1143.61 616.88 1444.28 616.88 1444.28 1159.15 902 1159.15 902 917.54 1202.67 917.54 1202.67 858.48 902 858.48 902 557.82 842.94 557.82 842.94 1459.82 241.61 1459.82 241.61 1760.49 0 1760.49 0 15.54 241.61 15.54 241.61 1218.21 601.34 1218.21 601.34 1159.15 300.67 1159.15 300.67 616.88 542.28 616.88 542.28 917.54 601.34 917.54 601.34 316.21 1503.34 316.21 1503.34 15.54 1744.95 15.54"/><polygon class="cls-1" points="1744.95 616.88 1744.95 1760.49 300.67 1760.49 300.67 1518.88 1503.34 1518.88 1503.34 616.88 1744.95 616.88"/><rect class="cls-1" x="300.67" y="316.21" width="241.61" height="241.61"/><rect class="cls-1" x="300.67" y="15.54" width="1143.61" height="241.61"/><path class="cls-1" d="M2236.72,1755.31V1373H2353.3q70.11,0,115.92,46.74t45.82,120v49.1q0,73.26-45.82,119.86t-115.92,46.61Zm31.51-355.52v329h85.07q56.72,0,93.48-39.65t36.75-100.3V1539q0-59.87-36.89-99.51t-93.34-39.65Z"/><path class="cls-1" d="M2720.89,1498.25l-22.31-1.57q-29.68,0-48.71,16.67t-27.18,45.82v196.14h-31.5v-284.1h27.56l3.94,47.26v3.15q12.34-26.25,33.08-41t49.37-14.7a64.08,64.08,0,0,1,11,.92,72,72,0,0,1,8.67,2Z"/><path class="cls-1" d="M2809.91,1389.81h-31.25V1345.7h31.25Zm0,365.5h-31.25v-284.1h31.25Z"/><path class="cls-1" d="M2977.68,1684.15l9.19,33.35h1.58l10-33.35,77.19-212.94h32.56l-107.92,284.1h-25.2l-108.18-284.1h32.56Z"/><path class="cls-1" d="M3264.4,1760.82q-55.12,0-89.53-39t-34.4-100.17v-14.44q0-61.44,34.8-101.35t86.25-39.91q51.72,0,79.95,33.21t28.22,89.41V1613H3172v8.67q0,48.58,24.55,80.61t67.87,32q26,0,47.79-8.53t36.24-23l13.39,21.53q-15,15.77-39.26,26.13T3264.4,1760.82Zm-2.88-268.08q-36.24,0-59.61,26t-27.3,65.91l.79,1.57h162.79v-6.56q0-37.82-19.83-62.36T3261.52,1492.74Z"/><path class="cls-1" d="M3840,1373v253.9q0,63-38.6,98.46t-99.25,35.45q-59.86,0-97.8-35.58t-37.94-98.33V1373h31.5v253.9q0,49.36,29.28,78.38t75,29q46.74,0,76.67-28.88t29.93-78.51V1373Z"/><path class="cls-1" d="M4153.45,1621.14q0,63.79-28.88,101.74T4045,1760.82q-29.67,0-52.12-11.29a95.75,95.75,0,0,1-36.62-32v147h-31.51V1471.21h24.15l5.78,44.37q14.17-23.62,36.76-36.62t53-13q51.2,0,80.08,40.83t28.88,108.83Zm-31.5-5.52q0-54.09-21.54-88.22t-63-34.14q-31.24,0-51.07,15a94.13,94.13,0,0,0-30.06,38.86v137.59q11,23.1,31.24,36.36t50.41,13.26q41.22,0,62.62-31t21.41-82.18Z"/><path class="cls-1" d="M4394.23,1682.57q0-20-16.41-34.79t-59.21-24.28q-50.41-10.5-75-28.75t-24.55-51.07q0-32.55,27.44-55.14t72.6-22.58q47.52,0,75.89,24t27,59.21l-.53,1.58h-29.14q0-23.37-20.09-40.7t-53.17-17.33q-34.12,0-51.46,15t-17.33,34.92q0,19.42,14.84,32.16t59.2,22.45q49.89,11,75.49,30.72t25.6,53q0,35.45-28.75,57.63t-76,22.19q-51.73,0-81.27-24.68t-28-58.82l.53-1.57h28.88q1.83,30.72,25.07,44.63t54.75,13.92q34.13,0,53.83-15.23T4394.23,1682.57Z"/><path class="cls-1" d="M4547,1398.48v72.73h62.49v25.73H4547v185.11q0,27.84,10.11,39.52t26.91,11.68a91.71,91.71,0,0,0,11.16-.66q5.37-.64,12.73-2.23l4.73,23.37a65.3,65.3,0,0,1-15.62,5.12,89.63,89.63,0,0,1-18.51,2q-29.94,0-46.61-18.91t-16.67-59.86V1496.94h-49.1v-25.73h49.1v-72.73Z"/><path class="cls-1" d="M4800.68,1498.25l-22.32-1.57q-29.67,0-48.71,16.67t-27.17,45.82v196.14H4671v-284.1h27.57l3.94,47.26v3.15q12.33-26.25,33.08-41t49.36-14.7a64.29,64.29,0,0,1,11,.92,72.26,72.26,0,0,1,8.66,2Z"/><path class="cls-1" d="M4957.43,1760.82q-55.14,0-89.54-39t-34.39-100.17v-14.44q0-61.44,34.79-101.35t86.25-39.91q51.73,0,79.95,33.21t28.23,89.41V1613H4865v8.67q0,48.58,24.55,80.61t67.87,32q26,0,47.79-8.53t36.23-23l13.39,21.53q-15,15.77-39.25,26.13T4957.43,1760.82Zm-2.89-268.08q-36.22,0-59.6,26t-27.31,65.91l.79,1.57h162.79v-6.56q0-37.82-19.82-62.36T4954.54,1492.74Z"/><path class="cls-1" d="M5306.12,1755.31q-2.9-15-4.34-25.74a167.71,167.71,0,0,1-1.44-22q-14.7,23.1-41.23,38.2t-60.91,15.1q-41.74,0-64.72-22.19t-23-60.26q0-38.07,33.35-61.7t86.64-23.63h69.85v-35.18q0-30.46-19.3-47.79t-54.48-17.33q-32.3,0-52.12,15.75t-19.82,39.65h-29.15l-.52-1.57q-1.59-32,27.43-56.32t75.75-24.29q46.74,0,75.09,23.89t28.37,68.53v139.69a243.27,243.27,0,0,0,1.7,29.14,184.72,184.72,0,0,0,5.64,28.1ZM5201.62,1733q36.23,0,62.75-17.2t36-44.24V1617.2h-70.11q-38.32,0-63.27,18.24t-24.95,44q0,24.16,15.89,38.86T5201.62,1733Z"/><path class="cls-1" d="M5442.12,1471.21,5445,1518q13.65-24.69,36.37-38.34t54-13.65q32.55,0,54.35,15.62t31.24,47.66q12.87-29.67,36.63-46.48t57.37-16.8q45.43,0,70.24,30.19t24.81,93.48v165.68h-31.5V1589.1q0-52.51-18.65-74.17t-51.46-21.67q-36,0-55.67,21.93t-24.94,56.58c0,1.93,0,3.85.13,5.78s.13,4.38.13,7.35v170.41h-31.77V1589.1q0-51.45-18.77-73.65t-51.6-22.19q-33.07,0-52.64,16.68t-27.44,45v200.34h-31.51v-284.1Z"/><path class="cls-1" d="M6245.58,1662.36q0-29.41-23.37-48.58t-79.29-36q-61.18-16.8-93.08-41.88t-31.9-68.13q0-43.86,35.7-72.08t91.11-28.22q58.31,0,93.75,31.9t34.39,81l-.53,1.57H6243q0-37.8-27.43-62.75t-70.77-24.94q-44.62,0-70,21.13t-25.34,51.86q0,29.14,23,47.92t81,35q60.39,17.6,92.16,43.33t31.77,68.26q0,44.64-37.15,71.81t-93.61,27.18q-56.46,0-98.46-28.75t-40.7-83.89l.53-1.58h29.14q0,44.39,33.35,66t76.14,21.66q43.86,0,71.42-20.09T6245.58,1662.36Z"/><path class="cls-1" d="M6329.6,1609.06q0-62.76,34.4-102.93t91.11-40.17q57,0,91.37,40.17t34.39,102.93v8.66q0,63-34.26,103.06t-91,40q-57.24,0-91.64-40t-34.4-103.06Zm31.51,8.66q0,49.37,24.94,83t69.59,33.61q43.84,0,68.92-33.61t25.07-83v-8.66q0-48.57-25.2-82.45t-69.32-33.87q-44.11,0-69.06,33.87t-24.94,82.45Z"/><path class="cls-1" d="M6681.7,1755.31h-31.24V1345.7h31.24Z"/><path class="cls-1" d="M6954.51,1709.09q-13.67,25-36.64,38.34t-54.48,13.39q-44.9,0-70.37-30.46t-25.46-94.52V1471.21h31.51v165.15q0,52,17.72,74.57t50.28,22.58q35.44,0,56.58-15.88t29.8-43.46v-203H6985v284.1h-27.83Z"/><path class="cls-1" d="M7117,1398.48v72.73h62.49v25.73H7117v185.11q0,27.84,10.1,39.52t26.92,11.68a91.71,91.71,0,0,0,11.16-.66q5.37-.64,12.73-2.23l4.73,23.37a65.24,65.24,0,0,1-15.63,5.12,89.48,89.48,0,0,1-18.51,2q-29.93,0-46.6-18.91t-16.67-59.86V1496.94h-49.1v-25.73h49.1v-72.73Z"/><path class="cls-1" d="M7276.15,1389.81h-31.24V1345.7h31.24Zm0,365.5h-31.24v-284.1h31.24Z"/><path class="cls-1" d="M7345.47,1609.06q0-62.76,34.4-102.93T7471,1466q57,0,91.37,40.17t34.39,102.93v8.66q0,63-34.26,103.06t-91,40q-57.24,0-91.63-40t-34.4-103.06Zm31.51,8.66q0,49.37,24.94,83t69.58,33.61q43.86,0,68.93-33.61t25.07-83v-8.66q0-48.57-25.2-82.45T7471,1492.74q-44.11,0-69.06,33.87T7377,1609.06Z"/><path class="cls-1" d="M7690.22,1471.21l2.88,49.36q13.92-26,37-40.3T7785,1466q46.22,0,70.37,28.22t24.16,88.1v173H7848V1582.54q0-48.84-18.25-69.06t-51.86-20.22q-33.61,0-54.22,16.55t-29.8,44.37v201.13h-31.5v-284.1Z"/><path class="cls-1" d="M8131.85,1682.57q0-20-16.41-34.79t-59.2-24.28q-50.43-10.5-75-28.75t-24.55-51.07q0-32.55,27.44-55.14t72.59-22.58q47.52,0,75.89,24t27,59.21l-.53,1.58H8130q0-23.37-20.09-40.7t-53.17-17.33q-34.12,0-51.46,15T7988,1542.63q0,19.42,14.84,32.16t59.21,22.45q49.88,11,75.48,30.72t25.61,53q0,35.45-28.75,57.63t-76,22.19q-51.73,0-81.27-24.68t-28-58.82l.53-1.57h28.88q1.83,30.72,25.07,44.63t54.75,13.92q34.14,0,53.83-15.23T8131.85,1682.57Z"/></g></g></svg>